<?xml version="1.0" standalone="no"?>
<!DOCTYPE svg PUBLIC "-//W3C//DTD SVG 20010904//EN"
 "http://www.w3.org/TR/2001/REC-SVG-20010904/DTD/svg10.dtd">
<svg version="1.0" xmlns="http://www.w3.org/2000/svg"
 width="441.000000pt" height="441.000000pt" viewBox="0 0 441.000000 441.000000"
 preserveAspectRatio="xMidYMid meet">
<metadata>
Created by potrace 1.11, written by Peter Selinger 2001-2013
</metadata>
<g transform="translate(0.000000,441.000000) scale(0.100000,-0.100000)"
fill="#000000" stroke="none">
<path d="M1060 2241 c0 -1095 1 -1159 18 -1164 9 -3 64 -22 122 -42 126 -43
318 -80 500 -96 499 -42 1003 137 1263 449 149 179 235 331 302 537 92 278
105 407 105 1011 l0 464 -259 0 -260 0 -4 -537 c-3 -501 -5 -544 -25 -631 -43
-191 -103 -332 -193 -453 -129 -175 -305 -283 -524 -324 -149 -28 -519 -8
-530 29 -2 6 -5 77 -7 157 l-4 147 57 16 c120 33 305 121 414 196 136 94 302
324 366 508 54 154 61 218 66 565 l5 327 -260 0 -261 0 -3 -317 c-4 -314 -4
-319 -31 -399 -48 -145 -130 -246 -283 -350 -43 -29 -79 -52 -79 -51 0 1 2
164 6 362 4 198 7 449 8 558 l1 197 -255 0 -255 0 0 -1159z"/>
</g>
</svg>
